<?xml version="1.0" encoding="iso-8859-1"?>
<!-- Generator: Adobe Illustrator 18.0.0, SVG Export Plug-In . SVG Version: 6.00 Build 0)  -->
<!DOCTYPE svg PUBLIC "-//W3C//DTD SVG 1.1//EN" "http://www.w3.org/Graphics/SVG/1.1/DTD/svg11.dtd">
<svg version="1.1" id="Capa_1" fill="#daa520" xmlns="http://www.w3.org/2000/svg" xmlns:xlink="http://www.w3.org/1999/xlink" x="0px" y="0px"
	 viewBox="0 0 481.037 481.037" style="enable-background:new 0 0 481.037 481.037;" xml:space="preserve">
<g>
	<path d="M481.017,245.419c-0.304-115.813-89.191-176.4-176.999-176.4c-4.694,0-8.5,3.806-8.5,8.5v34.117
		c-15.853-10.815-44.42-24.931-85.548-24.931c-39.249,0-81.542,12.938-125.705,38.454C29.287,156.924,0.942,208.148,0.019,277.405
		c-0.545,40.885,10.81,73.403,33.752,96.652c34.756,35.224,85.9,37.961,100.747,37.961c0.005-0.001,0.012-0.001,0.02,0
		c4.694,0,8.5-3.806,8.5-8.5c0-4.542-3.564-8.252-8.047-8.488c-1.453-0.115-19.563-1.731-37.653-11.599
		c-24.432-13.327-36.82-34.998-36.82-64.413c0-58.31,35.018-64.604,50.074-64.604c0.307,0,0.584,0.004,0.83,0.009
		c7.478,3.391,38.733,16.263,87.005,18.941l13.149,37.927l-24.543,20.734c-3.586,3.029-4.037,8.393-1.008,11.979
		c1.682,1.99,4.081,3.015,6.498,3.015c1.937,0,3.885-0.659,5.481-2.007l25.276-21.354l36.404,12.875
		c4.426,1.563,9.282-0.755,10.848-5.18c1.565-4.426-0.754-9.282-5.18-10.848l-37.143-13.136l-11.619-33.511
		c30.297-0.039,61.111-4.322,91.89-12.76l39.376,51.645l-22.824,19.282c-3.586,3.029-4.037,8.393-1.008,11.979
		c1.682,1.99,4.081,3.015,6.497,3.015c1.938,0,3.886-0.659,5.482-2.007l25.276-21.354l36.404,12.875
		c4.428,1.563,9.283-0.755,10.848-5.18c1.565-4.426-0.754-9.282-5.18-10.848L364.74,306.85l-38.868-50.98
		c1.378-0.448,2.757-0.887,4.135-1.352h142.511c0.007,0,0.015,0,0.02,0c4.694,0,8.5-3.806,8.5-8.5
		C481.037,245.817,481.03,245.617,481.017,245.419z M146.327,248.279l37.751-16.302l8.294,23.924
		C173.942,254.416,158.402,251.401,146.327,248.279z M328.604,237.519c-0.934,0-1.862,0.154-2.746,0.456
		c-3.643,1.244-7.29,2.409-10.936,3.531l-17.643-23.141c-2.847-3.733-8.181-4.45-11.913-1.607
		c-3.733,2.847-4.452,8.181-1.606,11.913l13.56,17.784c-27.229,6.908-54.414,10.406-81.141,10.406c-1.854,0-3.686-0.019-5.497-0.051
		l-13.538-39.05c-0.774-2.233-2.443-4.043-4.606-4.995c-2.163-0.954-4.626-0.961-6.794-0.024l-63.942,27.611
		c-2.876-1.165-4.428-1.912-4.5-1.947c-0.926-0.46-1.927-0.747-2.956-0.848c-0.247-0.024-1.59-0.145-3.752-0.145
		c-11.201,0-67.074,3.935-67.074,81.604c0,24.335,7.271,42.233,17.245,55.337c-5.212-3.47-10.232-7.517-14.892-12.238
		c-19.628-19.892-29.336-48.317-28.854-84.485c0.838-62.848,26.325-109.195,75.753-137.754
		c41.544-24.003,80.976-36.173,117.2-36.173c57.459,0,87.535,31.295,87.811,31.588c2.376,2.566,6.084,3.414,9.338,2.14
		c3.257-1.276,5.399-4.416,5.399-7.914V86.228c74.47,3.666,147.254,55.436,151.321,151.291H328.604z"/>
	<path d="M382.518,161.019h-25c-4.694,0-8.5,3.806-8.5,8.5c0,4.694,3.806,8.5,8.5,8.5h25c4.694,0,8.5-3.806,8.5-8.5
		C391.018,164.824,387.212,161.019,382.518,161.019z"/>
</g>
<g>
</g>
<g>
</g>
<g>
</g>
<g>
</g>
<g>
</g>
<g>
</g>
<g>
</g>
<g>
</g>
<g>
</g>
<g>
</g>
<g>
</g>
<g>
</g>
<g>
</g>
<g>
</g>
<g>
</g>
</svg>
